<svg width="96" height="96" viewBox="0 0 96 96" fill="none" xmlns="http://www.w3.org/2000/svg">
<rect width="96" height="96" fill="white"/>
<path fill-rule="evenodd" clip-rule="evenodd" d="M89.2545 31.0058C89.2785 31.5293 90.702 32.9153 91.467 33.6593C93.1725 35.3198 94.9365 37.0373 94.407 39.0158C93.8625 41.0543 91.422 41.6723 89.0625 42.2678C88.0755 42.5168 86.238 42.9818 85.938 43.3898C85.7267 43.8407 86.2418 45.6752 86.5238 46.6796L86.5305 46.7033L86.5322 46.7094C87.1842 49.028 87.8582 51.4251 86.388 52.8938C84.9159 54.3644 82.5195 53.6897 80.2034 53.0375L80.199 53.0363L80.1452 53.0212C79.1347 52.7374 77.3347 52.2317 76.8735 52.4498C76.476 52.7423 76.011 54.5798 75.762 55.5668C75.1665 57.9263 74.5485 60.3668 72.5115 60.9113C72.267 60.9758 72.0285 61.0058 71.793 61.0058C70.1133 61.0058 68.616 59.47 67.1592 57.9758L67.1505 57.9668L67.1105 57.9256C66.7157 57.5192 66.3198 57.1115 65.928 56.7488C65.9054 56.7253 65.8801 56.7008 65.8551 56.6764C65.8385 56.6603 65.822 56.6443 65.8065 56.6288C67.734 55.2728 69 53.0408 69 50.5043C69 49.8489 68.9159 49.2131 68.7579 48.6071C76.8952 46.8789 83 39.6524 83 31C83 21.0589 74.9411 13 65 13C55.5513 13 47.8031 20.2802 47.0586 29.5372C44.8595 29.6913 42.8112 30.3802 41.0265 31.4618C39.8145 28.0673 37.521 25.1948 34.5675 23.2388C34.5733 23.2035 34.5749 23.1676 34.5766 23.1317C34.5788 23.0839 34.581 23.0361 34.593 22.9898C35.1375 20.9543 37.578 20.3363 39.9375 19.7408C40.9245 19.4918 42.762 19.0268 43.062 18.6188C43.2735 18.1643 42.75 16.3043 42.468 15.3053L42.4663 15.2992C41.8143 12.9806 41.1403 10.5835 42.6105 9.11481C44.0805 7.64181 46.4805 8.31831 48.7995 8.97231L48.8027 8.97322C49.8025 9.25544 51.6575 9.77908 52.125 9.55881C52.5225 9.26631 52.9875 7.42881 53.2365 6.44181C53.832 4.08231 54.45 1.64181 56.487 1.09731C58.4613 0.566177 60.1552 2.30459 61.8044 3.99711L61.845 4.03881L61.8569 4.05107C62.6052 4.81892 63.9778 6.22744 64.5015 6.25131C65.025 6.22731 66.411 4.80381 67.155 4.03881L67.1666 4.02694C68.825 2.3251 70.5421 0.563056 72.5115 1.09731C74.55 1.64181 75.168 4.08231 75.7635 6.44181C76.0125 7.42881 76.4775 9.26631 76.8855 9.56631C77.3326 9.78104 79.1281 9.27473 80.141 8.98908L80.2005 8.97231L80.2208 8.96661C82.535 8.31737 84.9223 7.64761 86.391 9.11481C87.8639 10.5862 87.1875 12.9846 86.5336 15.3035L86.5335 15.3038C86.2515 16.3028 85.728 18.1628 85.947 18.6293C86.2395 19.0268 88.077 19.4918 89.064 19.7408C91.4235 20.3363 93.864 20.9543 94.4085 22.9913C94.9365 24.9698 93.174 26.6888 91.467 28.3493L91.4547 28.3613C90.6869 29.1095 89.2784 30.4821 89.2545 31.0058Z" fill="#ED1C24"/>
<path fill-rule="evenodd" clip-rule="evenodd" d="M30 66C30.75 65.5 31.5 65 33 65C34.5836 65 35.4984 65.5573 36.3623 66.0835C37.135 66.5542 37.8669 67 39 67C40.5836 67 41.4984 66.4427 42.3623 65.9165C42.631 65.7528 42.8948 65.5921 43.1723 65.4522C43.7021 66.5213 44 67.7259 44 69C44 73.4183 40.4183 77 36 77C31.5817 77 28 73.4183 28 69C28 68.2544 28.102 67.5327 28.2928 66.848C29.0069 66.662 29.5035 66.331 30 66Z" fill="#ED1C24"/>
<path d="M31.4985 63.4975L31.0002 63.9445C29.0544 65.6901 28.15 68.2945 28.6284 70.9017L31.4985 63.4975ZM31.4985 63.4975V62.828M31.4985 63.4975V62.828M31.4985 62.828V50C31.4985 47.5194 33.5179 45.5 35.9985 45.5C38.4791 45.5 40.4985 47.5194 40.4985 50V62.8265V63.4974M31.4985 62.828L40.4985 63.4974M40.4985 63.4974L40.9986 63.9446M40.4985 63.4974L40.9986 63.9446M40.9986 63.9446C42.6005 65.3771 43.4985 67.3635 43.4985 69.5C43.4985 71.7675 42.4903 73.8859 40.7292 75.3191L40.7287 75.3195M40.9986 63.9446L40.7287 75.3195M40.7287 75.3195C39.384 76.4147 37.716 76.997 35.9865 76.997C35.4594 76.997 34.9252 76.9431 34.3916 76.8331L40.7287 75.3195ZM34.3915 76.8331C31.4963 76.2337 29.1689 73.8461 28.6284 70.9018L34.3915 76.8331Z" stroke="#2E363F" stroke-width="3"/>
<path d="M36 51H32V54H36V51Z" fill="#2E363F"/>
<path d="M36 57H32V60H36V57Z" fill="#2E363F"/>
<path d="M84 31.5C84 20.748 75.252 12 64.5 12C54.7815 12 46.539 19.2885 45.2085 28.794C44.025 29.0175 42.873 29.3685 41.778 29.868C38.8995 23.754 32.694 19.5 25.5 19.5C15.5745 19.5 7.5 27.5745 7.5 37.5C7.5 39.1455 7.7295 40.7565 8.163 42.318C4.332 43.3515 1.5 46.8465 1.5 51C1.5 55.9635 5.5365 60 10.5 60H30V57H10.5C7.191 57 4.5 54.309 4.5 51C4.5 47.691 7.191 45 10.5 45C13.809 45 16.5 47.691 16.5 51H19.5C19.5 46.2765 15.8415 42.4005 11.2095 42.036C10.746 40.575 10.5 39.0555 10.5 37.5C10.5 29.229 17.229 22.5 25.5 22.5C33.771 22.5 40.5 29.229 40.5 37.5H43.5C43.5 35.8335 43.254 34.227 42.8295 32.694C44.4375 31.9245 46.197 31.5 48 31.5C54.159 31.5 59.244 36.1665 59.919 42.1485C55.7085 42.8985 52.5 46.578 52.5 51H55.5C55.5 47.691 58.191 45 61.5 45C64.809 45 67.5 47.691 67.5 51C67.5 54.309 64.809 57 61.5 57H42V60H61.5C66.4635 60 70.5 55.9635 70.5 51C70.5 50.685 70.4835 50.373 70.452 50.067C78.495 47.505 84 40.068 84 31.5ZM69.6375 47.1825C68.3925 44.541 65.9055 42.6045 62.9295 42.126C62.241 34.5885 55.956 28.656 48.2745 28.515C49.6935 20.8125 56.5125 15 64.5 15C73.5975 15 81 22.4025 81 31.5C81 38.715 76.389 44.985 69.6375 47.1825Z" fill="#2E363F"/>
</svg>
