<svg width="96" height="96" viewBox="0 0 96 96" fill="none" xmlns="http://www.w3.org/2000/svg">
<path d="M25.5 15H10.5V27H25.5V15Z" fill="#ED1C24"/>
<path d="M33 51H18V63H33V51Z" fill="#ED1C24"/>
<path d="M63 3H48V15H63V3Z" fill="#ED1C24"/>
<path d="M48 40.5V39H49.5V28.5H61.5V36H64.5V28.5H76.5V36H79.5V1.5H1.5V76.5H49.5V73.5H42V64.5H48V61.5H34.5V52.5H48V49.5H42V40.5H48ZM46.5 37.5H34.5V28.5H46.5V37.5ZM24 64.5V73.5H12V64.5H24ZM4.5 61.5V52.5H16.5V61.5H4.5ZM4.5 49.5V40.5H9V49.5H4.5ZM4.5 37.5V28.5H16.5V37.5H4.5ZM49.5 13.5V4.5H61.5V13.5H49.5ZM54 16.5V25.5H42V16.5H54ZM46.5 13.5H34.5V4.5H46.5V13.5ZM39 16.5V25.5H27V16.5H39ZM24 25.5H12V16.5H24V25.5ZM9 25.5H4.5V16.5H9V25.5ZM19.5 28.5H31.5V37.5H19.5V28.5ZM57 25.5V16.5H69V22.5H72V16.5H76.5V25.5H57ZM76.5 13.5H64.5V4.5H76.5V13.5ZM16.5 4.5V10.5H19.5V4.5H31.5V13.5H4.5V4.5H16.5ZM4.5 64.5H9V73.5H4.5V64.5ZM39 73.5H27V64.5H39V73.5ZM31.5 61.5H19.5V52.5H31.5V61.5ZM39 49.5H27V43.5H24V49.5H12V40.5H39V49.5Z" fill="#2E363F"/>
<path fill-rule="evenodd" clip-rule="evenodd" d="M70.206 94.4715L70.5 94.53L70.794 94.47C84.531 91.7235 94.5 79.563 94.5 65.5545V37.5H93C85.464 37.5 78.2385 35.184 72.1065 30.8025L70.4985 29.6565L68.8935 30.8055C62.76 35.1855 55.5345 37.5 48 37.5H46.5V65.5545C46.5 79.563 56.469 91.7235 70.206 94.4715ZM71.2785 37.4415C76.1805 40.416 81.54 42.3225 87.2055 43.104L88.5 43.2825V65.5545C88.5 76.272 81.252 85.6245 70.875 88.302L70.5 88.3965L70.125 88.3005C59.748 85.6245 52.5 76.272 52.5 65.5545V43.2825L53.7945 43.104C59.4585 42.324 64.8165 40.4175 69.7215 37.4415L70.5 36.969L71.2785 37.4415ZM70.5 85.2945C79.3515 82.836 85.5 74.7735 85.5 65.5545V45.8775C80.199 44.9895 75.162 43.173 70.5 40.467C65.835 43.173 60.798 44.9895 55.5 45.8775V65.5545C55.5 74.772 61.6485 82.8345 70.5 85.2945Z" fill="#ED1C24"/>
</svg>
