<svg width="96" height="96" viewBox="0 0 96 96" fill="none" xmlns="http://www.w3.org/2000/svg">
<path d="M12.9611 34.2338C12.2492 33.9372 11.877 33.146 12.1323 32.4183C15.1857 23.7134 21.3184 16.4568 29.2238 11.9552C29.9874 11.5204 30.9471 11.873 31.2851 12.6842C31.5854 13.4051 31.2827 14.233 30.6053 14.6216C23.407 18.7523 17.8165 25.3678 15.004 33.2981C14.7081 34.1324 13.7782 34.5743 12.9611 34.2338Z" fill="#ED1C24"/>
<path d="M3.72284 30.3845C4.52876 30.7203 5.44786 30.2965 5.74903 29.4771C9.5613 19.1039 17.0846 10.5235 26.7097 5.34502C27.4063 4.97025 27.7214 4.13154 27.4172 3.40138C27.0835 2.60037 26.1414 2.24561 25.3764 2.65519C15.039 8.18973 6.96407 17.399 2.89747 28.5373C2.62869 29.2735 2.99942 30.0831 3.72284 30.3845Z" fill="#ED1C24"/>
<path d="M40 82C40 86.9706 44.0294 91 49 91C53.9706 91 58 86.9706 58 82H40Z" fill="#ED1C24"/>
<path d="M66.7303 28.4413C62.1499 23.2641 55.4562 20 48 20C47.2055 20 46.4197 20.0371 45.6441 20.1095C51.1967 25.0685 54.7599 32.2082 54.9883 40.1833L66.7303 28.4413Z" fill="#ED1C24"/>
<path d="M72 45C72 44.5058 71.9857 44.015 71.9574 43.5279L54 61.4853V80H84.8293C84.9398 79.6872 85 79.3506 85 79V73C85 71.3431 83.6568 70 82 70C77.0294 70 72 64.9706 72 60V45Z" fill="#ED1C24"/>
<path fill-rule="evenodd" clip-rule="evenodd" d="M76.6869 38.7984C76.8931 40.1689 77 41.572 77 43V59C77 62.3137 79.6863 65 83 65H84C87.3137 65 90 67.6863 90 71V77C90 80.3137 87.3137 83 84 83H58.9506C58.4489 88.0533 54.1853 92 49 92C43.8147 92 39.5511 88.0533 39.0494 83H32.4853L35.4853 80H84C85.6569 80 87 78.6569 87 77V71C87 69.3431 85.6569 68 84 68H83C78.0295 68 74 63.9706 74 59V43C74 42.5058 73.9857 42.015 73.9574 41.5279L76.6869 38.7984ZM49 89C45.4735 89 42.5561 86.3923 42.0709 83H55.9291C55.4439 86.3923 52.5265 89 49 89Z" fill="#2E363F"/>
<path fill-rule="evenodd" clip-rule="evenodd" d="M73.9307 30.2409C70.3219 23.2037 63.8211 17.8942 55.997 15.8813C56.636 14.7319 57 13.4084 57 12C57 7.58172 53.4183 4 49 4C44.5817 4 41 7.58172 41 12C41 13.4084 41.364 14.7319 42.003 15.8814C29.9249 18.9886 21 29.9521 21 43V59C21 62.3137 18.3137 65 15 65H14C10.6863 65 8 67.6863 8 71V77C8 80.3137 10.6863 83 14 83H21.1716L24.1716 80H14C12.3431 80 11 78.6569 11 77V71C11 69.3431 12.3431 68 14 68H15C19.9706 68 24 63.9706 24 59V43C24 29.1929 35.1929 18 49 18C59.0508 18 67.7163 23.9311 71.6874 32.4842L73.9307 30.2409ZM45.2046 15.2551C46.4457 15.0869 47.7127 15 49 15C50.2873 15 51.5543 15.0869 52.7955 15.2551C53.5463 14.3804 54 13.2432 54 12C54 9.23858 51.7614 7 49 7C46.2386 7 44 9.23858 44 12C44 13.2432 44.4537 14.3804 45.2046 15.2551Z" fill="#2E363F"/>
<rect x="11.9375" y="88.2341" width="100" height="8" rx="4" transform="rotate(-45 11.9375 88.2341)" fill="#ED1C24"/>
</svg>
